<svg xmlns="http://www.w3.org/2000/svg" id="Layer_1" width="100" height="100"><style id="style3">.st0{fill:#657C88;} .st1{fill:#F6C345;} .st2{font-family:&apos;TitilliumWeb-Regular&apos;;} .st3{font-size:57.1298px;} .st4{fill:#FFFFFF;} .st5{fill:#EAEAEA;}</style><path id="path4275" fill="#f6c345" d="M50 2.25c-16.86.02-32.46 8.93-41.04 23.45h3.25l21.96 46.44H38.2L59.1 27.86l1-2.16h7.32l1 2.16L89.4 72.14h2.87c3.6-6.83 5.47-14.42 5.48-22.14C97.75 23.63 76.37 2.25 50 2.25zM7.73 27.85C4.13 34.7 2.26 42.3 2.25 50c0 26.37 21.38 47.75 47.75 47.75 16.86-.02 32.46-8.93 41.04-23.45h-3L66.07 27.86H61.5C54.2 43.34 46.87 58.82 39.55 74.3H32.8l-1.02-2.16-20.93-44.28zm46.5 24.38h19.2v2.15h-19.2z"/></svg>